<?xml version="1.0" encoding="utf-8"?>
<!-- Generator: Adobe Illustrator 18.1.1, SVG Export Plug-In . SVG Version: 6.00 Build 0)  -->
<svg version="1.1" id="Слой_1" xmlns="http://www.w3.org/2000/svg" xmlns:xlink="http://www.w3.org/1999/xlink" x="0px" y="0px"
	 viewBox="0 27.4 250 45.6" enable-background="new 0 27.4 250 45.6" xml:space="preserve">
<g>
	<path fill="#FFFFFF" d="M62.8,72.2c-2.9,0-5.3,0-8,0c0-14.6,0-44,0-44s13.9-0.2,20.6,0.1c5.8,0.2,10.5,2.7,13.4,7.9
		c4.1,7.4,0.7,16.5-7.2,19.8c-0.4,0.2-1,0.4-1.8,0.7c3.7,5.2,7.2,10.3,11,15.6c-3.1,0-5.8,0-8.5,0c-0.4,0-1-0.6-1.3-1
		c-3-4.2-6-8.5-9-12.6c-0.4-0.6-1.3-1-2-1.1c-2.3-0.1-4.6,0-7.2,0C62.8,62.3,62.8,67.2,62.8,72.2z M62.9,35.8c0,4.6,0,9.4,0,14
		c4.1,0,8.1,0.2,12.1-0.1c3.1-0.2,5.8-1.5,7-4.6c1.7-4.2-1-8.7-6-9.3C71.7,35.5,67.3,35.8,62.9,35.8z"/>
	<path fill="#FFFFFF" d="M47.3,50.1C47.3,62.4,36.8,73,24.2,73S1.1,62.4,1.1,50.1s10.6-22.8,23.2-22.7
		C36.9,27.4,47.3,37.8,47.3,50.1z M9.3,50.2c0,8.5,6.9,15.6,15,15.5c8.1,0,14.8-7.2,14.8-15.6s-6.7-15.5-14.9-15.5
		C16,34.7,9.3,41.8,9.3,50.2z"/>
	<path fill="#FFFFFF" d="M225.7,27.4c12.6,0,23.1,10.5,23,22.9C248.6,62.7,238.1,73,225.6,73c-12.6,0-23.1-10.4-23.2-22.8
		C202.4,37.8,213.1,27.3,225.7,27.4z M210.6,50.1c0,8.5,6.9,15.6,14.9,15.6s14.8-7,14.9-15.5c0.1-8.4-6.7-15.5-14.8-15.6
		C217.5,34.6,210.7,41.6,210.6,50.1z"/>
	<path fill="#FFFFFF" d="M147.6,53.6c0,6.2,0,12.4,0,18.6c-2.7,0-5.2,0-7.9,0c0-14.6,0-29.2,0-43.9c2.7,0,5.2,0,7.9,0
		c0,5.9,0,11.7,0,17.7c7.4,0,14.6,0,22,0c0-5.9,0-11.7,0-17.7c2.8,0,5.3,0,8,0c0,14.6,0,29.2,0,43.9c-2.7,0-5.2,0-7.9,0
		c0-6.2,0-12.3,0-18.6C162.3,53.6,155.1,53.6,147.6,53.6z"/>
	<path fill="#FFFFFF" d="M97.9,28.2c6.7,0,13.3,0,19.9,0c1.2,0,2.4,0.2,3.5,0.4c11.3,2.3,15.9,15.3,8.5,23.6
		c-3.3,3.8-7.7,5.1-12.6,5.2c-3.8,0.1-7.5,0-11.4,0c0,5,0,9.7,0,14.7c-2.7,0-5.2,0-8,0C97.9,57.6,97.9,43,97.9,28.2z M105.8,49.8
		c4.2,0,8.2,0.2,12.2,0c4.1-0.2,6.9-3,7.2-6.3c0.3-3.5-1.7-6.6-5.5-7.3c-4.5-0.8-9.3-0.7-13.9-0.9C105.8,40.4,105.8,45.1,105.8,49.8
		z"/>
	<path fill="#FFFFFF" d="M187.1,28.2c2.5,0,5.1,0,7.7,0c0,14.6,0,29.2,0,43.9c-2.4,0-5,0-7.7,0C187.1,57.5,187.1,42.9,187.1,28.2z"
		/>
</g>
</svg>
