<?xml version="1.0" encoding="utf-8"?>
<!-- Generator: Adobe Illustrator 18.1.1, SVG Export Plug-In . SVG Version: 6.00 Build 0)  -->
<svg version="1.1" id="Слой_1" xmlns="http://www.w3.org/2000/svg" xmlns:xlink="http://www.w3.org/1999/xlink" x="0px" y="0px"
	 viewBox="0 0 226 43.5" enable-background="new 0 0 226 43.5" xml:space="preserve">
<g>
	<path d="M56.8,41.8c-2.6,0-4.8,0-7.2,0c0-13.2,0-39.8,0-39.8s12.6-0.2,18.6,0.1c5.2,0.2,9.5,2.4,12.1,7.1
		c3.7,6.7,0.6,14.9-6.5,17.9c-0.4,0.2-0.9,0.4-1.6,0.6c3.3,4.7,6.5,9.3,9.9,14.1c-2.8,0-5.2,0-7.7,0c-0.4,0-0.9-0.5-1.2-0.9
		c-2.7-3.8-5.4-7.7-8.1-11.4c-0.4-0.5-1.2-0.9-1.8-1c-2.1-0.1-4.2,0-6.5,0C56.8,32.9,56.8,37.3,56.8,41.8z M56.9,8.9
		c0,4.2,0,8.5,0,12.7c3.7,0,7.3,0.2,10.9-0.1c2.8-0.2,5.2-1.4,6.3-4.2c1.5-3.8-0.9-7.9-5.4-8.4C64.8,8.6,60.8,8.9,56.9,8.9z"/>
	<path d="M42.8,21.8c0,11.2-9.5,20.7-20.9,20.7C10.5,42.5,1,33,1,21.8C1,10.6,10.6,1.2,22,1.3C33.4,1.3,42.8,10.7,42.8,21.8z
		 M8.4,21.9c0,7.7,6.2,14.1,13.6,14c7.3,0,13.4-6.5,13.4-14.1c0-7.6-6.1-14-13.5-14C14.5,7.9,8.4,14.3,8.4,21.9z"/>
	<path d="M204,1.3c11.4,0,20.9,9.5,20.8,20.7c-0.1,11.2-9.6,20.5-20.9,20.5c-11.4,0-20.9-9.4-21-20.6C183,10.7,192.6,1.2,204,1.3z
		 M190.4,21.8c0,7.7,6.2,14.1,13.5,14.1c7.3,0,13.4-6.3,13.5-14c0.1-7.6-6.1-14-13.4-14.1C196.6,7.8,190.5,14.2,190.4,21.8z"/>
	<path d="M133.4,25c0,5.6,0,11.2,0,16.8c-2.4,0-4.7,0-7.1,0c0-13.2,0-26.4,0-39.7c2.4,0,4.7,0,7.1,0c0,5.3,0,10.6,0,16
		c6.7,0,13.2,0,19.9,0c0-5.3,0-10.6,0-16c2.5,0,4.8,0,7.2,0c0,13.2,0,26.4,0,39.7c-2.4,0-4.7,0-7.1,0c0-5.6,0-11.1,0-16.8
		C146.7,25,140.2,25,133.4,25z"/>
	<path d="M88.5,2c6.1,0,12,0,18,0c1.1,0,2.2,0.2,3.2,0.4c10.2,2.1,14.4,13.8,7.7,21.3c-3,3.4-7,4.6-11.4,4.7c-3.4,0.1-6.8,0-10.3,0
		c0,4.5,0,8.8,0,13.3c-2.4,0-4.7,0-7.2,0C88.5,28.6,88.5,15.4,88.5,2z M95.6,21.6c3.8,0,7.4,0.2,11,0c3.7-0.2,6.2-2.7,6.5-5.7
		c0.3-3.2-1.5-6-5-6.6c-4.1-0.7-8.4-0.6-12.6-0.8C95.6,13.1,95.6,17.3,95.6,21.6z"/>
	<path d="M169.1,2c2.3,0,4.6,0,7,0c0,13.2,0,26.4,0,39.7c-2.2,0-4.5,0-7,0C169.1,28.5,169.1,15.3,169.1,2z"/>
</g>
</svg>
